<svg xmlns="http://www.w3.org/2000/svg" viewBox="0 0 294.42 310.52"><defs><style>.cls-1{fill:#812511;stroke:#812511;stroke-miterlimit:10;}</style></defs><title>logo</title><path fill="#812400" d="M431.94,273.93v-27L388,271.46l-.18-30L317.41,288.4l-23.29.35-71.47-46.94-.36,25.06L179.76,246.4l.18,28.23-20.65-5.82.36,244.94,133.76,33.18.09,3.61,22.68-.17.08-4,135-19Q452,398.68,452.71,270ZM292.35,299.51,184.18,275.69q.16-11.2.35-22.41l42.35,19.59q-.18-11.65-.35-23.3l65.82,42.71Zm135.71-24.7L317.59,299.34l-.18-7.24,66.88-42.88.18,28.24,43.77-23.83Z" transform="translate(-158.79 -240.53)"/></svg>